<mxfile host="app.diagrams.net" modified="2023-09-20T22:33:35.003Z" agent="Mozilla/5.0 (Windows NT 10.0; Win64; x64) AppleWebKit/537.36 (KHTML, like Gecko) Chrome/116.0.0.0 Safari/537.36" etag="WeceagBP6Wejzaa4Fay0" version="21.8.0" type="github">
  <diagram id="6a731a19-8d31-9384-78a2-239565b7b9f0" name="Page-1">
    <mxGraphModel dx="3559" dy="1250" grid="1" gridSize="10" guides="1" tooltips="1" connect="1" arrows="1" fold="1" page="1" pageScale="1" pageWidth="1169" pageHeight="827" background="none" math="0" shadow="0">
      <root>
        <mxCell id="0" />
        <mxCell id="1" parent="0" />
        <mxCell id="N36Ikm1QesRVF4nRVXAc-55" value="" style="whiteSpace=wrap;html=1;aspect=fixed;fillColor=#d5e8d4;strokeColor=#82b366;" vertex="1" parent="1">
          <mxGeometry x="-13.68" y="10" width="580" height="580" as="geometry" />
        </mxCell>
        <mxCell id="N36Ikm1QesRVF4nRVXAc-56" value="Narion - Sumati - Andraphon" style="text;strokeColor=none;align=center;fillColor=none;html=1;verticalAlign=middle;whiteSpace=wrap;rounded=0;fontSize=19;" vertex="1" parent="1">
          <mxGeometry x="60" y="30" width="410" height="30" as="geometry" />
        </mxCell>
        <mxCell id="N36Ikm1QesRVF4nRVXAc-57" value="HE3" style="shape=image;html=1;verticalLabelPosition=bottom;verticalAlign=top;imageAspect=1;aspect=fixed;image=img/clipart/Gear_128x128.png" vertex="1" parent="1">
          <mxGeometry x="63.68999999999999" y="80" width="42.63" height="50" as="geometry" />
        </mxCell>
        <mxCell id="N36Ikm1QesRVF4nRVXAc-58" value="GAS STORAGE" style="html=1;whiteSpace=wrap;shape=isoCube2;backgroundOutline=1;isoAngle=15;" vertex="1" parent="1">
          <mxGeometry x="55" y="210" width="60" height="60" as="geometry" />
        </mxCell>
        <mxCell id="N36Ikm1QesRVF4nRVXAc-59" style="edgeStyle=none;rounded=0;orthogonalLoop=1;jettySize=auto;html=1;exitX=0.5;exitY=1;exitDx=0;exitDy=0;entryX=0.51;entryY=0.078;entryDx=0;entryDy=0;entryPerimeter=0;" edge="1" parent="1" source="N36Ikm1QesRVF4nRVXAc-57" target="N36Ikm1QesRVF4nRVXAc-58">
          <mxGeometry relative="1" as="geometry">
            <mxPoint x="85" y="200" as="targetPoint" />
          </mxGeometry>
        </mxCell>
        <mxCell id="N36Ikm1QesRVF4nRVXAc-60" value="Iron" style="shape=image;html=1;verticalLabelPosition=bottom;verticalAlign=top;imageAspect=1;aspect=fixed;image=img/clipart/Gear_128x128.png" vertex="1" parent="1">
          <mxGeometry x="178.69" y="80" width="42.63" height="50" as="geometry" />
        </mxCell>
        <mxCell id="N36Ikm1QesRVF4nRVXAc-61" value="SOLID STORAGE" style="html=1;whiteSpace=wrap;shape=isoCube2;backgroundOutline=1;isoAngle=15;" vertex="1" parent="1">
          <mxGeometry x="246.31" y="210" width="60" height="60" as="geometry" />
        </mxCell>
        <mxCell id="N36Ikm1QesRVF4nRVXAc-62" style="edgeStyle=none;rounded=0;orthogonalLoop=1;jettySize=auto;html=1;exitX=0.5;exitY=1;exitDx=0;exitDy=0;entryX=0.5;entryY=0;entryDx=0;entryDy=0;entryPerimeter=0;" edge="1" parent="1" source="N36Ikm1QesRVF4nRVXAc-60" target="N36Ikm1QesRVF4nRVXAc-61">
          <mxGeometry relative="1" as="geometry">
            <mxPoint x="268" y="225" as="targetPoint" />
          </mxGeometry>
        </mxCell>
        <mxCell id="N36Ikm1QesRVF4nRVXAc-63" value="Beryllium" style="shape=image;html=1;verticalLabelPosition=bottom;verticalAlign=top;imageAspect=1;aspect=fixed;image=img/clipart/Gear_128x128.png" vertex="1" parent="1">
          <mxGeometry x="255" y="80" width="42.63" height="50" as="geometry" />
        </mxCell>
        <mxCell id="N36Ikm1QesRVF4nRVXAc-64" value="Aluminium" style="shape=image;html=1;verticalLabelPosition=bottom;verticalAlign=top;imageAspect=1;aspect=fixed;image=img/clipart/Gear_128x128.png" vertex="1" parent="1">
          <mxGeometry x="327.37" y="80" width="42.63" height="50" as="geometry" />
        </mxCell>
        <mxCell id="N36Ikm1QesRVF4nRVXAc-65" style="edgeStyle=none;rounded=0;orthogonalLoop=1;jettySize=auto;html=1;exitX=0.5;exitY=1;exitDx=0;exitDy=0;entryX=0.5;entryY=0;entryDx=0;entryDy=0;entryPerimeter=0;" edge="1" parent="1" source="N36Ikm1QesRVF4nRVXAc-63" target="N36Ikm1QesRVF4nRVXAc-61">
          <mxGeometry relative="1" as="geometry">
            <mxPoint x="211" y="225" as="targetPoint" />
            <mxPoint x="210" y="140" as="sourcePoint" />
          </mxGeometry>
        </mxCell>
        <mxCell id="N36Ikm1QesRVF4nRVXAc-66" style="edgeStyle=none;rounded=0;orthogonalLoop=1;jettySize=auto;html=1;exitX=0.5;exitY=1;exitDx=0;exitDy=0;entryX=0.5;entryY=0;entryDx=0;entryDy=0;entryPerimeter=0;" edge="1" parent="1" source="N36Ikm1QesRVF4nRVXAc-64" target="N36Ikm1QesRVF4nRVXAc-61">
          <mxGeometry relative="1" as="geometry">
            <mxPoint x="210" y="220" as="targetPoint" />
            <mxPoint x="286" y="140" as="sourcePoint" />
          </mxGeometry>
        </mxCell>
        <mxCell id="N36Ikm1QesRVF4nRVXAc-68" value="" style="whiteSpace=wrap;html=1;aspect=fixed;fillColor=#d5e8d4;strokeColor=#82b366;" vertex="1" parent="1">
          <mxGeometry x="610" y="10" width="440" height="440" as="geometry" />
        </mxCell>
        <mxCell id="N36Ikm1QesRVF4nRVXAc-69" value="Narion - Sumati - Andraphon" style="text;strokeColor=none;align=center;fillColor=none;html=1;verticalAlign=middle;whiteSpace=wrap;rounded=0;fontSize=19;" vertex="1" parent="1">
          <mxGeometry x="634" y="30" width="410" height="30" as="geometry" />
        </mxCell>
        <mxCell id="N36Ikm1QesRVF4nRVXAc-70" value="HE3" style="shape=image;html=1;verticalLabelPosition=bottom;verticalAlign=top;imageAspect=1;aspect=fixed;image=img/clipart/Gear_128x128.png" vertex="1" parent="1">
          <mxGeometry x="637.69" y="80" width="42.63" height="50" as="geometry" />
        </mxCell>
        <mxCell id="N36Ikm1QesRVF4nRVXAc-71" value="GAS STORAGE" style="html=1;whiteSpace=wrap;shape=isoCube2;backgroundOutline=1;isoAngle=15;" vertex="1" parent="1">
          <mxGeometry x="629" y="210" width="60" height="60" as="geometry" />
        </mxCell>
        <mxCell id="N36Ikm1QesRVF4nRVXAc-72" style="edgeStyle=none;rounded=0;orthogonalLoop=1;jettySize=auto;html=1;exitX=0.5;exitY=1;exitDx=0;exitDy=0;entryX=0.51;entryY=0.078;entryDx=0;entryDy=0;entryPerimeter=0;" edge="1" parent="1" source="N36Ikm1QesRVF4nRVXAc-70" target="N36Ikm1QesRVF4nRVXAc-71">
          <mxGeometry relative="1" as="geometry">
            <mxPoint x="659" y="200" as="targetPoint" />
          </mxGeometry>
        </mxCell>
        <mxCell id="N36Ikm1QesRVF4nRVXAc-73" value="Iron" style="shape=image;html=1;verticalLabelPosition=bottom;verticalAlign=top;imageAspect=1;aspect=fixed;image=img/clipart/Gear_128x128.png" vertex="1" parent="1">
          <mxGeometry x="752.69" y="80" width="42.63" height="50" as="geometry" />
        </mxCell>
        <mxCell id="N36Ikm1QesRVF4nRVXAc-74" value="SOLID STORAGE" style="html=1;whiteSpace=wrap;shape=isoCube2;backgroundOutline=1;isoAngle=15;" vertex="1" parent="1">
          <mxGeometry x="820.31" y="210" width="60" height="60" as="geometry" />
        </mxCell>
        <mxCell id="N36Ikm1QesRVF4nRVXAc-75" style="edgeStyle=none;rounded=0;orthogonalLoop=1;jettySize=auto;html=1;exitX=0.5;exitY=1;exitDx=0;exitDy=0;entryX=0.5;entryY=0;entryDx=0;entryDy=0;entryPerimeter=0;" edge="1" parent="1" source="N36Ikm1QesRVF4nRVXAc-73" target="N36Ikm1QesRVF4nRVXAc-74">
          <mxGeometry relative="1" as="geometry">
            <mxPoint x="842" y="225" as="targetPoint" />
          </mxGeometry>
        </mxCell>
        <mxCell id="N36Ikm1QesRVF4nRVXAc-76" value="Beryllium" style="shape=image;html=1;verticalLabelPosition=bottom;verticalAlign=top;imageAspect=1;aspect=fixed;image=img/clipart/Gear_128x128.png" vertex="1" parent="1">
          <mxGeometry x="829" y="80" width="42.63" height="50" as="geometry" />
        </mxCell>
        <mxCell id="N36Ikm1QesRVF4nRVXAc-77" value="Aluminium" style="shape=image;html=1;verticalLabelPosition=bottom;verticalAlign=top;imageAspect=1;aspect=fixed;image=img/clipart/Gear_128x128.png" vertex="1" parent="1">
          <mxGeometry x="901.37" y="80" width="42.63" height="50" as="geometry" />
        </mxCell>
        <mxCell id="N36Ikm1QesRVF4nRVXAc-78" style="edgeStyle=none;rounded=0;orthogonalLoop=1;jettySize=auto;html=1;exitX=0.5;exitY=1;exitDx=0;exitDy=0;entryX=0.5;entryY=0;entryDx=0;entryDy=0;entryPerimeter=0;" edge="1" parent="1" source="N36Ikm1QesRVF4nRVXAc-76" target="N36Ikm1QesRVF4nRVXAc-74">
          <mxGeometry relative="1" as="geometry">
            <mxPoint x="785" y="225" as="targetPoint" />
            <mxPoint x="784" y="140" as="sourcePoint" />
          </mxGeometry>
        </mxCell>
        <mxCell id="N36Ikm1QesRVF4nRVXAc-79" style="edgeStyle=none;rounded=0;orthogonalLoop=1;jettySize=auto;html=1;exitX=0.5;exitY=1;exitDx=0;exitDy=0;entryX=0.5;entryY=0;entryDx=0;entryDy=0;entryPerimeter=0;" edge="1" parent="1" source="N36Ikm1QesRVF4nRVXAc-77" target="N36Ikm1QesRVF4nRVXAc-74">
          <mxGeometry relative="1" as="geometry">
            <mxPoint x="784" y="220" as="targetPoint" />
            <mxPoint x="860" y="140" as="sourcePoint" />
          </mxGeometry>
        </mxCell>
      </root>
    </mxGraphModel>
  </diagram>
</mxfile>
